<svg version="1.1" xmlns="http://www.w3.org/2000/svg" xmlns:xlink="http://www.w3.org/1999/xlink" width="787" height="819"><defs/><g><text fill="#eeeeee" stroke="none" font-family="Arial" font-size="24px" font-style="normal" font-weight="normal" text-decoration="none" x="0" y="0">UNREGISTERED</text><text fill="#eeeeee" stroke="none" font-family="Arial" font-size="24px" font-style="normal" font-weight="normal" text-decoration="none" x="0" y="30">UNREGISTERED</text><text fill="#eeeeee" stroke="none" font-family="Arial" font-size="24px" font-style="normal" font-weight="normal" text-decoration="none" x="0" y="60">UNREGISTERED</text><text fill="#eeeeee" stroke="none" font-family="Arial" font-size="24px" font-style="normal" font-weight="normal" text-decoration="none" x="0" y="90">UNREGISTERED</text><text fill="#eeeeee" stroke="none" font-family="Arial" font-size="24px" font-style="normal" font-weight="normal" text-decoration="none" x="0" y="120">UNREGISTERED</text><text fill="#eeeeee" stroke="none" font-family="Arial" font-size="24px" font-style="normal" font-weight="normal" text-decoration="none" x="0" y="150">UNREGISTERED</text><text fill="#eeeeee" stroke="none" font-family="Arial" font-size="24px" font-style="normal" font-weight="normal" text-decoration="none" x="0" y="180">UNREGISTERED</text><text fill="#eeeeee" stroke="none" font-family="Arial" font-size="24px" font-style="normal" font-weight="normal" text-decoration="none" x="0" y="210">UNREGISTERED</text><text fill="#eeeeee" stroke="none" font-family="Arial" font-size="24px" font-style="normal" font-weight="normal" text-decoration="none" x="0" y="240">UNREGISTERED</text><text fill="#eeeeee" stroke="none" font-family="Arial" font-size="24px" font-style="normal" font-weight="normal" text-decoration="none" x="0" y="270">UNREGISTERED</text><text fill="#eeeeee" stroke="none" font-family="Arial" font-size="24px" font-style="normal" font-weight="normal" text-decoration="none" x="0" y="300">UNREGISTERED</text><text fill="#eeeeee" stroke="none" font-family="Arial" font-size="24px" font-style="normal" font-weight="normal" text-decoration="none" x="0" y="330">UNREGISTERED</text><text fill="#eeeeee" stroke="none" font-family="Arial" font-size="24px" font-style="normal" font-weight="normal" text-decoration="none" x="0" y="360">UNREGISTERED</text><text fill="#eeeeee" stroke="none" font-family="Arial" font-size="24px" font-style="normal" font-weight="normal" text-decoration="none" x="0" y="390">UNREGISTERED</text><text fill="#eeeeee" stroke="none" font-family="Arial" font-size="24px" font-style="normal" font-weight="normal" text-decoration="none" x="0" y="420">UNREGISTERED</text><text fill="#eeeeee" stroke="none" font-family="Arial" font-size="24px" font-style="normal" font-weight="normal" text-decoration="none" x="0" y="450">UNREGISTERED</text><text fill="#eeeeee" stroke="none" font-family="Arial" font-size="24px" font-style="normal" font-weight="normal" text-decoration="none" x="0" y="480">UNREGISTERED</text><text fill="#eeeeee" stroke="none" font-family="Arial" font-size="24px" font-style="normal" font-weight="normal" text-decoration="none" x="0" y="510">UNREGISTERED</text><text fill="#eeeeee" stroke="none" font-family="Arial" font-size="24px" font-style="normal" font-weight="normal" text-decoration="none" x="0" y="540">UNREGISTERED</text><text fill="#eeeeee" stroke="none" font-family="Arial" font-size="24px" font-style="normal" font-weight="normal" text-decoration="none" x="0" y="570">UNREGISTERED</text><text fill="#eeeeee" stroke="none" font-family="Arial" font-size="24px" font-style="normal" font-weight="normal" text-decoration="none" x="0" y="600">UNREGISTERED</text><text fill="#eeeeee" stroke="none" font-family="Arial" font-size="24px" font-style="normal" font-weight="normal" text-decoration="none" x="0" y="630">UNREGISTERED</text><text fill="#eeeeee" stroke="none" font-family="Arial" font-size="24px" font-style="normal" font-weight="normal" text-decoration="none" x="0" y="660">UNREGISTERED</text><text fill="#eeeeee" stroke="none" font-family="Arial" font-size="24px" font-style="normal" font-weight="normal" text-decoration="none" x="0" y="690">UNREGISTERED</text><text fill="#eeeeee" stroke="none" font-family="Arial" font-size="24px" font-style="normal" font-weight="normal" text-decoration="none" x="0" y="720">UNREGISTERED</text><text fill="#eeeeee" stroke="none" font-family="Arial" font-size="24px" font-style="normal" font-weight="normal" text-decoration="none" x="0" y="750">UNREGISTERED</text><text fill="#eeeeee" stroke="none" font-family="Arial" font-size="24px" font-style="normal" font-weight="normal" text-decoration="none" x="0" y="780">UNREGISTERED</text><text fill="#eeeeee" stroke="none" font-family="Arial" font-size="24px" font-style="normal" font-weight="normal" text-decoration="none" x="0" y="810">UNREGISTERED</text><text fill="#eeeeee" stroke="none" font-family="Arial" font-size="24px" font-style="normal" font-weight="normal" text-decoration="none" x="200" y="0">UNREGISTERED</text><text fill="#eeeeee" stroke="none" font-family="Arial" font-size="24px" font-style="normal" font-weight="normal" text-decoration="none" x="200" y="30">UNREGISTERED</text><text fill="#eeeeee" stroke="none" font-family="Arial" font-size="24px" font-style="normal" font-weight="normal" text-decoration="none" x="200" y="60">UNREGISTERED</text><text fill="#eeeeee" stroke="none" font-family="Arial" font-size="24px" font-style="normal" font-weight="normal" text-decoration="none" x="200" y="90">UNREGISTERED</text><text fill="#eeeeee" stroke="none" font-family="Arial" font-size="24px" font-style="normal" font-weight="normal" text-decoration="none" x="200" y="120">UNREGISTERED</text><text fill="#eeeeee" stroke="none" font-family="Arial" font-size="24px" font-style="normal" font-weight="normal" text-decoration="none" x="200" y="150">UNREGISTERED</text><text fill="#eeeeee" stroke="none" font-family="Arial" font-size="24px" font-style="normal" font-weight="normal" text-decoration="none" x="200" y="180">UNREGISTERED</text><text fill="#eeeeee" stroke="none" font-family="Arial" font-size="24px" font-style="normal" font-weight="normal" text-decoration="none" x="200" y="210">UNREGISTERED</text><text fill="#eeeeee" stroke="none" font-family="Arial" font-size="24px" font-style="normal" font-weight="normal" text-decoration="none" x="200" y="240">UNREGISTERED</text><text fill="#eeeeee" stroke="none" font-family="Arial" font-size="24px" font-style="normal" font-weight="normal" text-decoration="none" x="200" y="270">UNREGISTERED</text><text fill="#eeeeee" stroke="none" font-family="Arial" font-size="24px" font-style="normal" font-weight="normal" text-decoration="none" x="200" y="300">UNREGISTERED</text><text fill="#eeeeee" stroke="none" font-family="Arial" font-size="24px" font-style="normal" font-weight="normal" text-decoration="none" x="200" y="330">UNREGISTERED</text><text fill="#eeeeee" stroke="none" font-family="Arial" font-size="24px" font-style="normal" font-weight="normal" text-decoration="none" x="200" y="360">UNREGISTERED</text><text fill="#eeeeee" stroke="none" font-family="Arial" font-size="24px" font-style="normal" font-weight="normal" text-decoration="none" x="200" y="390">UNREGISTERED</text><text fill="#eeeeee" stroke="none" font-family="Arial" font-size="24px" font-style="normal" font-weight="normal" text-decoration="none" x="200" y="420">UNREGISTERED</text><text fill="#eeeeee" stroke="none" font-family="Arial" font-size="24px" font-style="normal" font-weight="normal" text-decoration="none" x="200" y="450">UNREGISTERED</text><text fill="#eeeeee" stroke="none" font-family="Arial" font-size="24px" font-style="normal" font-weight="normal" text-decoration="none" x="200" y="480">UNREGISTERED</text><text fill="#eeeeee" stroke="none" font-family="Arial" font-size="24px" font-style="normal" font-weight="normal" text-decoration="none" x="200" y="510">UNREGISTERED</text><text fill="#eeeeee" stroke="none" font-family="Arial" font-size="24px" font-style="normal" font-weight="normal" text-decoration="none" x="200" y="540">UNREGISTERED</text><text fill="#eeeeee" stroke="none" font-family="Arial" font-size="24px" font-style="normal" font-weight="normal" text-decoration="none" x="200" y="570">UNREGISTERED</text><text fill="#eeeeee" stroke="none" font-family="Arial" font-size="24px" font-style="normal" font-weight="normal" text-decoration="none" x="200" y="600">UNREGISTERED</text><text fill="#eeeeee" stroke="none" font-family="Arial" font-size="24px" font-style="normal" font-weight="normal" text-decoration="none" x="200" y="630">UNREGISTERED</text><text fill="#eeeeee" stroke="none" font-family="Arial" font-size="24px" font-style="normal" font-weight="normal" text-decoration="none" x="200" y="660">UNREGISTERED</text><text fill="#eeeeee" stroke="none" font-family="Arial" font-size="24px" font-style="normal" font-weight="normal" text-decoration="none" x="200" y="690">UNREGISTERED</text><text fill="#eeeeee" stroke="none" font-family="Arial" font-size="24px" font-style="normal" font-weight="normal" text-decoration="none" x="200" y="720">UNREGISTERED</text><text fill="#eeeeee" stroke="none" font-family="Arial" font-size="24px" font-style="normal" font-weight="normal" text-decoration="none" x="200" y="750">UNREGISTERED</text><text fill="#eeeeee" stroke="none" font-family="Arial" font-size="24px" font-style="normal" font-weight="normal" text-decoration="none" x="200" y="780">UNREGISTERED</text><text fill="#eeeeee" stroke="none" font-family="Arial" font-size="24px" font-style="normal" font-weight="normal" text-decoration="none" x="200" y="810">UNREGISTERED</text><text fill="#eeeeee" stroke="none" font-family="Arial" font-size="24px" font-style="normal" font-weight="normal" text-decoration="none" x="400" y="0">UNREGISTERED</text><text fill="#eeeeee" stroke="none" font-family="Arial" font-size="24px" font-style="normal" font-weight="normal" text-decoration="none" x="400" y="30">UNREGISTERED</text><text fill="#eeeeee" stroke="none" font-family="Arial" font-size="24px" font-style="normal" font-weight="normal" text-decoration="none" x="400" y="60">UNREGISTERED</text><text fill="#eeeeee" stroke="none" font-family="Arial" font-size="24px" font-style="normal" font-weight="normal" text-decoration="none" x="400" y="90">UNREGISTERED</text><text fill="#eeeeee" stroke="none" font-family="Arial" font-size="24px" font-style="normal" font-weight="normal" text-decoration="none" x="400" y="120">UNREGISTERED</text><text fill="#eeeeee" stroke="none" font-family="Arial" font-size="24px" font-style="normal" font-weight="normal" text-decoration="none" x="400" y="150">UNREGISTERED</text><text fill="#eeeeee" stroke="none" font-family="Arial" font-size="24px" font-style="normal" font-weight="normal" text-decoration="none" x="400" y="180">UNREGISTERED</text><text fill="#eeeeee" stroke="none" font-family="Arial" font-size="24px" font-style="normal" font-weight="normal" text-decoration="none" x="400" y="210">UNREGISTERED</text><text fill="#eeeeee" stroke="none" font-family="Arial" font-size="24px" font-style="normal" font-weight="normal" text-decoration="none" x="400" y="240">UNREGISTERED</text><text fill="#eeeeee" stroke="none" font-family="Arial" font-size="24px" font-style="normal" font-weight="normal" text-decoration="none" x="400" y="270">UNREGISTERED</text><text fill="#eeeeee" stroke="none" font-family="Arial" font-size="24px" font-style="normal" font-weight="normal" text-decoration="none" x="400" y="300">UNREGISTERED</text><text fill="#eeeeee" stroke="none" font-family="Arial" font-size="24px" font-style="normal" font-weight="normal" text-decoration="none" x="400" y="330">UNREGISTERED</text><text fill="#eeeeee" stroke="none" font-family="Arial" font-size="24px" font-style="normal" font-weight="normal" text-decoration="none" x="400" y="360">UNREGISTERED</text><text fill="#eeeeee" stroke="none" font-family="Arial" font-size="24px" font-style="normal" font-weight="normal" text-decoration="none" x="400" y="390">UNREGISTERED</text><text fill="#eeeeee" stroke="none" font-family="Arial" font-size="24px" font-style="normal" font-weight="normal" text-decoration="none" x="400" y="420">UNREGISTERED</text><text fill="#eeeeee" stroke="none" font-family="Arial" font-size="24px" font-style="normal" font-weight="normal" text-decoration="none" x="400" y="450">UNREGISTERED</text><text fill="#eeeeee" stroke="none" font-family="Arial" font-size="24px" font-style="normal" font-weight="normal" text-decoration="none" x="400" y="480">UNREGISTERED</text><text fill="#eeeeee" stroke="none" font-family="Arial" font-size="24px" font-style="normal" font-weight="normal" text-decoration="none" x="400" y="510">UNREGISTERED</text><text fill="#eeeeee" stroke="none" font-family="Arial" font-size="24px" font-style="normal" font-weight="normal" text-decoration="none" x="400" y="540">UNREGISTERED</text><text fill="#eeeeee" stroke="none" font-family="Arial" font-size="24px" font-style="normal" font-weight="normal" text-decoration="none" x="400" y="570">UNREGISTERED</text><text fill="#eeeeee" stroke="none" font-family="Arial" font-size="24px" font-style="normal" font-weight="normal" text-decoration="none" x="400" y="600">UNREGISTERED</text><text fill="#eeeeee" stroke="none" font-family="Arial" font-size="24px" font-style="normal" font-weight="normal" text-decoration="none" x="400" y="630">UNREGISTERED</text><text fill="#eeeeee" stroke="none" font-family="Arial" font-size="24px" font-style="normal" font-weight="normal" text-decoration="none" x="400" y="660">UNREGISTERED</text><text fill="#eeeeee" stroke="none" font-family="Arial" font-size="24px" font-style="normal" font-weight="normal" text-decoration="none" x="400" y="690">UNREGISTERED</text><text fill="#eeeeee" stroke="none" font-family="Arial" font-size="24px" font-style="normal" font-weight="normal" text-decoration="none" x="400" y="720">UNREGISTERED</text><text fill="#eeeeee" stroke="none" font-family="Arial" font-size="24px" font-style="normal" font-weight="normal" text-decoration="none" x="400" y="750">UNREGISTERED</text><text fill="#eeeeee" stroke="none" font-family="Arial" font-size="24px" font-style="normal" font-weight="normal" text-decoration="none" x="400" y="780">UNREGISTERED</text><text fill="#eeeeee" stroke="none" font-family="Arial" font-size="24px" font-style="normal" font-weight="normal" text-decoration="none" x="400" y="810">UNREGISTERED</text><text fill="#eeeeee" stroke="none" font-family="Arial" font-size="24px" font-style="normal" font-weight="normal" text-decoration="none" x="600" y="0">UNREGISTERED</text><text fill="#eeeeee" stroke="none" font-family="Arial" font-size="24px" font-style="normal" font-weight="normal" text-decoration="none" x="600" y="30">UNREGISTERED</text><text fill="#eeeeee" stroke="none" font-family="Arial" font-size="24px" font-style="normal" font-weight="normal" text-decoration="none" x="600" y="60">UNREGISTERED</text><text fill="#eeeeee" stroke="none" font-family="Arial" font-size="24px" font-style="normal" font-weight="normal" text-decoration="none" x="600" y="90">UNREGISTERED</text><text fill="#eeeeee" stroke="none" font-family="Arial" font-size="24px" font-style="normal" font-weight="normal" text-decoration="none" x="600" y="120">UNREGISTERED</text><text fill="#eeeeee" stroke="none" font-family="Arial" font-size="24px" font-style="normal" font-weight="normal" text-decoration="none" x="600" y="150">UNREGISTERED</text><text fill="#eeeeee" stroke="none" font-family="Arial" font-size="24px" font-style="normal" font-weight="normal" text-decoration="none" x="600" y="180">UNREGISTERED</text><text fill="#eeeeee" stroke="none" font-family="Arial" font-size="24px" font-style="normal" font-weight="normal" text-decoration="none" x="600" y="210">UNREGISTERED</text><text fill="#eeeeee" stroke="none" font-family="Arial" font-size="24px" font-style="normal" font-weight="normal" text-decoration="none" x="600" y="240">UNREGISTERED</text><text fill="#eeeeee" stroke="none" font-family="Arial" font-size="24px" font-style="normal" font-weight="normal" text-decoration="none" x="600" y="270">UNREGISTERED</text><text fill="#eeeeee" stroke="none" font-family="Arial" font-size="24px" font-style="normal" font-weight="normal" text-decoration="none" x="600" y="300">UNREGISTERED</text><text fill="#eeeeee" stroke="none" font-family="Arial" font-size="24px" font-style="normal" font-weight="normal" text-decoration="none" x="600" y="330">UNREGISTERED</text><text fill="#eeeeee" stroke="none" font-family="Arial" font-size="24px" font-style="normal" font-weight="normal" text-decoration="none" x="600" y="360">UNREGISTERED</text><text fill="#eeeeee" stroke="none" font-family="Arial" font-size="24px" font-style="normal" font-weight="normal" text-decoration="none" x="600" y="390">UNREGISTERED</text><text fill="#eeeeee" stroke="none" font-family="Arial" font-size="24px" font-style="normal" font-weight="normal" text-decoration="none" x="600" y="420">UNREGISTERED</text><text fill="#eeeeee" stroke="none" font-family="Arial" font-size="24px" font-style="normal" font-weight="normal" text-decoration="none" x="600" y="450">UNREGISTERED</text><text fill="#eeeeee" stroke="none" font-family="Arial" font-size="24px" font-style="normal" font-weight="normal" text-decoration="none" x="600" y="480">UNREGISTERED</text><text fill="#eeeeee" stroke="none" font-family="Arial" font-size="24px" font-style="normal" font-weight="normal" text-decoration="none" x="600" y="510">UNREGISTERED</text><text fill="#eeeeee" stroke="none" font-family="Arial" font-size="24px" font-style="normal" font-weight="normal" text-decoration="none" x="600" y="540">UNREGISTERED</text><text fill="#eeeeee" stroke="none" font-family="Arial" font-size="24px" font-style="normal" font-weight="normal" text-decoration="none" x="600" y="570">UNREGISTERED</text><text fill="#eeeeee" stroke="none" font-family="Arial" font-size="24px" font-style="normal" font-weight="normal" text-decoration="none" x="600" y="600">UNREGISTERED</text><text fill="#eeeeee" stroke="none" font-family="Arial" font-size="24px" font-style="normal" font-weight="normal" text-decoration="none" x="600" y="630">UNREGISTERED</text><text fill="#eeeeee" stroke="none" font-family="Arial" font-size="24px" font-style="normal" font-weight="normal" text-decoration="none" x="600" y="660">UNREGISTERED</text><text fill="#eeeeee" stroke="none" font-family="Arial" font-size="24px" font-style="normal" font-weight="normal" text-decoration="none" x="600" y="690">UNREGISTERED</text><text fill="#eeeeee" stroke="none" font-family="Arial" font-size="24px" font-style="normal" font-weight="normal" text-decoration="none" x="600" y="720">UNREGISTERED</text><text fill="#eeeeee" stroke="none" font-family="Arial" font-size="24px" font-style="normal" font-weight="normal" text-decoration="none" x="600" y="750">UNREGISTERED</text><text fill="#eeeeee" stroke="none" font-family="Arial" font-size="24px" font-style="normal" font-weight="normal" text-decoration="none" x="600" y="780">UNREGISTERED</text><text fill="#eeeeee" stroke="none" font-family="Arial" font-size="24px" font-style="normal" font-weight="normal" text-decoration="none" x="600" y="810">UNREGISTERED</text><g transform="translate(-182,-46) scale(1,1)"><rect fill="#C0C0C0" stroke="none" x="351" y="63" width="615" height="799" opacity="0.2"/></g><g transform="translate(-182,-46) scale(1,1)"><rect fill="#ffffff" stroke="none" x="344" y="56" width="615" height="799"/></g><g transform="translate(-182,-46) scale(1,1)"><path fill="none" stroke="#000000" d="M 344 56 L 959 56 L 959 855 L 344 855 L 344 56 Z Z" stroke-miterlimit="10"/></g><g transform="translate(-182,-46) scale(1,1)"><g><path fill="none" stroke="none"/><text fill="#000000" stroke="none" font-family="Arial" font-size="13px" font-style="normal" font-weight="bold" text-decoration="none" x="511.702392578125" y="74">Diagrama de Casos de Uso SI Pepitos Market</text></g></g><g transform="translate(-182,-46) scale(1,1)"><path fill="#ffffff" stroke="none" d="M 212.02116672585228 377.68 C 212.02116672585228 372.886167936 215.90700905079774 369 220.700439453125 369 C 225.49386985545226 369 229.37971218039772 372.886167936 229.37971218039772 377.68 C 229.37971218039772 382.473832064 225.49386985545226 386.36 220.700439453125 386.36 C 215.90700905079774 386.36 212.02116672585228 382.473832064 212.02116672585228 377.68 Z"/></g><g transform="translate(-182,-46) scale(1,1)"><path fill="none" stroke="#000000" d="M 212.02116672585228 377.68 C 212.02116672585228 372.886167936 215.90700905079774 369 220.700439453125 369 C 225.49386985545226 369 229.37971218039772 372.886167936 229.37971218039772 377.68 C 229.37971218039772 382.473832064 225.49386985545226 386.36 220.700439453125 386.36 C 215.90700905079774 386.36 212.02116672585228 382.473832064 212.02116672585228 377.68 Z" stroke-miterlimit="10"/></g><g transform="translate(-182,-46) scale(1,1)"><path fill="none" stroke="#000000" d="M 220.700439453125 386.36 L 220.700439453125 403.64" stroke-miterlimit="10"/></g><g transform="translate(-182,-46) scale(1,1)"><path fill="none" stroke="#000000" d="M 211.51062127130683 392.84 L 229.89025763494317 392.84" stroke-miterlimit="10"/></g><g transform="translate(-182,-46) scale(1,1)"><path fill="none" stroke="#000000" d="M 220.700439453125 403.64 L 207.93680308948865 421" stroke-miterlimit="10"/></g><g transform="translate(-182,-46) scale(1,1)"><path fill="none" stroke="#000000" d="M 220.700439453125 403.64 L 233.46407581676135 421" stroke-miterlimit="10"/></g><g transform="translate(-182,-46) scale(1,1)"><g><path fill="none" stroke="none"/><text fill="#000000" stroke="none" font-family="Arial" font-size="13px" font-style="normal" font-weight="bold" text-decoration="none" x="196.5" y="440">Usuario</text></g></g><g transform="translate(-182,-46) scale(1,1)"><path fill="#C0C0C0" stroke="none" d="M 503 248 C 503 238.6111584 542.8466528 231 592 231 C 641.1533472 231 681 238.6111584 681 248 C 681 257.3888416 641.1533472 265 592 265 C 542.8466528 265 503 257.3888416 503 248 Z" opacity="0.2"/></g><g transform="translate(-182,-46) scale(1,1)"><path fill="#ffffff" stroke="none" d="M 496 241 C 496 231.6111584 535.8466528 224 585 224 C 634.1533472 224 674 231.6111584 674 241 C 674 250.3888416 634.1533472 258 585 258 C 535.8466528 258 496 250.3888416 496 241 Z"/></g><g transform="translate(-182,-46) scale(1,1)"><path fill="none" stroke="#000000" d="M 496 241 C 496 231.6111584 535.8466528 224 585 224 C 634.1533472 224 674 231.6111584 674 241 C 674 250.3888416 634.1533472 258 585 258 C 535.8466528 258 496 250.3888416 496 241 Z" stroke-miterlimit="10"/></g><g transform="translate(-182,-46) scale(1,1)"><g><path fill="none" stroke="none"/><text fill="#000000" stroke="none" font-family="Arial" font-size="13px" font-style="normal" font-weight="bold" text-decoration="none" x="526.49365234375" y="246.5">Registrar producto</text></g></g><g transform="translate(-182,-46) scale(1,1)"><path fill="none" stroke="#000000" d="M 250 393 L 545 259" stroke-miterlimit="10"/></g><g transform="translate(-182,-46) scale(1,1)"><path fill="#C0C0C0" stroke="none" d="M 503 416 C 503 406.6111584 538.1456432 399 581.5 399 C 624.8543568 399 660 406.6111584 660 416 C 660 425.3888416 624.8543568 433 581.5 433 C 538.1456432 433 503 425.3888416 503 416 Z" opacity="0.2"/></g><g transform="translate(-182,-46) scale(1,1)"><path fill="#ffffff" stroke="none" d="M 496 409 C 496 399.6111584 531.1456432 392 574.5 392 C 617.8543568 392 653 399.6111584 653 409 C 653 418.3888416 617.8543568 426 574.5 426 C 531.1456432 426 496 418.3888416 496 409 Z"/></g><g transform="translate(-182,-46) scale(1,1)"><path fill="none" stroke="#000000" d="M 496 409 C 496 399.6111584 531.1456432 392 574.5 392 C 617.8543568 392 653 399.6111584 653 409 C 653 418.3888416 617.8543568 426 574.5 426 C 531.1456432 426 496 418.3888416 496 409 Z" stroke-miterlimit="10"/></g><g transform="translate(-182,-46) scale(1,1)"><g><path fill="none" stroke="none"/><text fill="#000000" stroke="none" font-family="Arial" font-size="13px" font-style="normal" font-weight="bold" text-decoration="none" x="523.563232421875" y="414.5">Registrar cliente</text></g></g><g transform="translate(-182,-46) scale(1,1)"><path fill="none" stroke="#000000" d="M 250 407 L 495 409" stroke-miterlimit="10"/></g><g transform="translate(-182,-46) scale(1,1)"><path fill="#C0C0C0" stroke="none" d="M 519 640 C 519 630.6111584 549.6684912 623 587.5 623 C 625.3315088 623 656 630.6111584 656 640 C 656 649.3888416 625.3315088 657 587.5 657 C 549.6684912 657 519 649.3888416 519 640 Z" opacity="0.2"/></g><g transform="translate(-182,-46) scale(1,1)"><path fill="#ffffff" stroke="none" d="M 512 633 C 512 623.6111584 542.6684912 616 580.5 616 C 618.3315088 616 649 623.6111584 649 633 C 649 642.3888416 618.3315088 650 580.5 650 C 542.6684912 650 512 642.3888416 512 633 Z"/></g><g transform="translate(-182,-46) scale(1,1)"><path fill="none" stroke="#000000" d="M 512 633 C 512 623.6111584 542.6684912 616 580.5 616 C 618.3315088 616 649 623.6111584 649 633 C 649 642.3888416 618.3315088 650 580.5 650 C 542.6684912 650 512 642.3888416 512 633 Z" stroke-miterlimit="10"/></g><g transform="translate(-182,-46) scale(1,1)"><g><path fill="none" stroke="none"/><text fill="#000000" stroke="none" font-family="Arial" font-size="13px" font-style="normal" font-weight="bold" text-decoration="none" x="536.421875" y="638.5">Realizar Venta</text></g></g><g transform="translate(-182,-46) scale(1,1)"><path fill="none" stroke="#000000" d="M 250 426 L 551 615" stroke-miterlimit="10"/></g><g transform="translate(-182,-46) scale(1,1)"><path fill="#C0C0C0" stroke="none" d="M 743 584 C 743 574.6111584 775.2354944 567 815 567 C 854.7645056 567 887 574.6111584 887 584 C 887 593.3888416 854.7645056 601 815 601 C 775.2354944 601 743 593.3888416 743 584 Z" opacity="0.2"/></g><g transform="translate(-182,-46) scale(1,1)"><path fill="#ffffff" stroke="none" d="M 736 577 C 736 567.6111584 768.2354944 560 808 560 C 847.7645056 560 880 567.6111584 880 577 C 880 586.3888416 847.7645056 594 808 594 C 768.2354944 594 736 586.3888416 736 577 Z"/></g><g transform="translate(-182,-46) scale(1,1)"><path fill="none" stroke="#000000" d="M 736 577 C 736 567.6111584 768.2354944 560 808 560 C 847.7645056 560 880 567.6111584 880 577 C 880 586.3888416 847.7645056 594 808 594 C 768.2354944 594 736 586.3888416 736 577 Z" stroke-miterlimit="10"/></g><g transform="translate(-182,-46) scale(1,1)"><g><path fill="none" stroke="none"/><text fill="#000000" stroke="none" font-family="Arial" font-size="13px" font-style="normal" font-weight="bold" text-decoration="none" x="761.398681640625" y="582.5">Realizar Boleta</text></g></g><g transform="translate(-182,-46) scale(1,1)"><path fill="none" stroke="#000000" d="M 650 616 L 735 595" stroke-miterlimit="10" stroke-dasharray="3"/></g><g transform="translate(-182,-46) scale(1,1)"><path fill="none" stroke="#000000" d="M 726.1436089198863 601.5241349645822 L 735 595 L 724.1243257355793 593.350845885244" stroke-miterlimit="10"/></g><g transform="translate(-182,-46) scale(1,1)"><g><path fill="none" stroke="none"/><text fill="#000000" stroke="none" font-family="Arial" font-size="13px" font-style="normal" font-weight="normal" text-decoration="none" x="658.5" y="599">«extend»</text></g></g><g transform="translate(-182,-46) scale(1,1)"><path fill="#C0C0C0" stroke="none" d="M 735 720 C 735 710.6111584 769.697928 703 812.5 703 C 855.302072 703 890 710.6111584 890 720 C 890 729.3888416 855.302072 737 812.5 737 C 769.697928 737 735 729.3888416 735 720 Z" opacity="0.2"/></g><g transform="translate(-182,-46) scale(1,1)"><path fill="#ffffff" stroke="none" d="M 728 713 C 728 703.6111584 762.697928 696 805.5 696 C 848.302072 696 883 703.6111584 883 713 C 883 722.3888416 848.302072 730 805.5 730 C 762.697928 730 728 722.3888416 728 713 Z"/></g><g transform="translate(-182,-46) scale(1,1)"><path fill="none" stroke="#000000" d="M 728 713 C 728 703.6111584 762.697928 696 805.5 696 C 848.302072 696 883 703.6111584 883 713 C 883 722.3888416 848.302072 730 805.5 730 C 762.697928 730 728 722.3888416 728 713 Z" stroke-miterlimit="10"/></g><g transform="translate(-182,-46) scale(1,1)"><g><path fill="none" stroke="none"/><text fill="#000000" stroke="none" font-family="Arial" font-size="13px" font-style="normal" font-weight="bold" text-decoration="none" x="755.28369140625" y="718.5">Realizar Factura</text></g></g><g transform="translate(-182,-46) scale(1,1)"><path fill="none" stroke="#000000" d="M 631 651 L 754 695" stroke-miterlimit="10" stroke-dasharray="3"/></g><g transform="translate(-182,-46) scale(1,1)"><path fill="none" stroke="#000000" d="M 743.0132893167116 695.540544504843 L 754 695 L 745.8489996880045 687.6134450578197" stroke-miterlimit="10"/></g><g transform="translate(-182,-46) scale(1,1)"><g><path fill="none" stroke="none"/><text fill="#000000" stroke="none" font-family="Arial" font-size="13px" font-style="normal" font-weight="normal" text-decoration="none" x="670.5" y="695">«extend»</text></g></g></g></svg>