<svg version="1.1" xmlns="http://www.w3.org/2000/svg" xmlns:xlink="http://www.w3.org/1999/xlink" width="804" height="859"><defs/><g><text fill="#eeeeee" stroke="none" font-family="Arial" font-size="24px" font-style="normal" font-weight="normal" text-decoration="none" x="0" y="0">UNREGISTERED</text><text fill="#eeeeee" stroke="none" font-family="Arial" font-size="24px" font-style="normal" font-weight="normal" text-decoration="none" x="0" y="30">UNREGISTERED</text><text fill="#eeeeee" stroke="none" font-family="Arial" font-size="24px" font-style="normal" font-weight="normal" text-decoration="none" x="0" y="60">UNREGISTERED</text><text fill="#eeeeee" stroke="none" font-family="Arial" font-size="24px" font-style="normal" font-weight="normal" text-decoration="none" x="0" y="90">UNREGISTERED</text><text fill="#eeeeee" stroke="none" font-family="Arial" font-size="24px" font-style="normal" font-weight="normal" text-decoration="none" x="0" y="120">UNREGISTERED</text><text fill="#eeeeee" stroke="none" font-family="Arial" font-size="24px" font-style="normal" font-weight="normal" text-decoration="none" x="0" y="150">UNREGISTERED</text><text fill="#eeeeee" stroke="none" font-family="Arial" font-size="24px" font-style="normal" font-weight="normal" text-decoration="none" x="0" y="180">UNREGISTERED</text><text fill="#eeeeee" stroke="none" font-family="Arial" font-size="24px" font-style="normal" font-weight="normal" text-decoration="none" x="0" y="210">UNREGISTERED</text><text fill="#eeeeee" stroke="none" font-family="Arial" font-size="24px" font-style="normal" font-weight="normal" text-decoration="none" x="0" y="240">UNREGISTERED</text><text fill="#eeeeee" stroke="none" font-family="Arial" font-size="24px" font-style="normal" font-weight="normal" text-decoration="none" x="0" y="270">UNREGISTERED</text><text fill="#eeeeee" stroke="none" font-family="Arial" font-size="24px" font-style="normal" font-weight="normal" text-decoration="none" x="0" y="300">UNREGISTERED</text><text fill="#eeeeee" stroke="none" font-family="Arial" font-size="24px" font-style="normal" font-weight="normal" text-decoration="none" x="0" y="330">UNREGISTERED</text><text fill="#eeeeee" stroke="none" font-family="Arial" font-size="24px" font-style="normal" font-weight="normal" text-decoration="none" x="0" y="360">UNREGISTERED</text><text fill="#eeeeee" stroke="none" font-family="Arial" font-size="24px" font-style="normal" font-weight="normal" text-decoration="none" x="0" y="390">UNREGISTERED</text><text fill="#eeeeee" stroke="none" font-family="Arial" font-size="24px" font-style="normal" font-weight="normal" text-decoration="none" x="0" y="420">UNREGISTERED</text><text fill="#eeeeee" stroke="none" font-family="Arial" font-size="24px" font-style="normal" font-weight="normal" text-decoration="none" x="0" y="450">UNREGISTERED</text><text fill="#eeeeee" stroke="none" font-family="Arial" font-size="24px" font-style="normal" font-weight="normal" text-decoration="none" x="0" y="480">UNREGISTERED</text><text fill="#eeeeee" stroke="none" font-family="Arial" font-size="24px" font-style="normal" font-weight="normal" text-decoration="none" x="0" y="510">UNREGISTERED</text><text fill="#eeeeee" stroke="none" font-family="Arial" font-size="24px" font-style="normal" font-weight="normal" text-decoration="none" x="0" y="540">UNREGISTERED</text><text fill="#eeeeee" stroke="none" font-family="Arial" font-size="24px" font-style="normal" font-weight="normal" text-decoration="none" x="0" y="570">UNREGISTERED</text><text fill="#eeeeee" stroke="none" font-family="Arial" font-size="24px" font-style="normal" font-weight="normal" text-decoration="none" x="0" y="600">UNREGISTERED</text><text fill="#eeeeee" stroke="none" font-family="Arial" font-size="24px" font-style="normal" font-weight="normal" text-decoration="none" x="0" y="630">UNREGISTERED</text><text fill="#eeeeee" stroke="none" font-family="Arial" font-size="24px" font-style="normal" font-weight="normal" text-decoration="none" x="0" y="660">UNREGISTERED</text><text fill="#eeeeee" stroke="none" font-family="Arial" font-size="24px" font-style="normal" font-weight="normal" text-decoration="none" x="0" y="690">UNREGISTERED</text><text fill="#eeeeee" stroke="none" font-family="Arial" font-size="24px" font-style="normal" font-weight="normal" text-decoration="none" x="0" y="720">UNREGISTERED</text><text fill="#eeeeee" stroke="none" font-family="Arial" font-size="24px" font-style="normal" font-weight="normal" text-decoration="none" x="0" y="750">UNREGISTERED</text><text fill="#eeeeee" stroke="none" font-family="Arial" font-size="24px" font-style="normal" font-weight="normal" text-decoration="none" x="0" y="780">UNREGISTERED</text><text fill="#eeeeee" stroke="none" font-family="Arial" font-size="24px" font-style="normal" font-weight="normal" text-decoration="none" x="0" y="810">UNREGISTERED</text><text fill="#eeeeee" stroke="none" font-family="Arial" font-size="24px" font-style="normal" font-weight="normal" text-decoration="none" x="0" y="840">UNREGISTERED</text><text fill="#eeeeee" stroke="none" font-family="Arial" font-size="24px" font-style="normal" font-weight="normal" text-decoration="none" x="200" y="0">UNREGISTERED</text><text fill="#eeeeee" stroke="none" font-family="Arial" font-size="24px" font-style="normal" font-weight="normal" text-decoration="none" x="200" y="30">UNREGISTERED</text><text fill="#eeeeee" stroke="none" font-family="Arial" font-size="24px" font-style="normal" font-weight="normal" text-decoration="none" x="200" y="60">UNREGISTERED</text><text fill="#eeeeee" stroke="none" font-family="Arial" font-size="24px" font-style="normal" font-weight="normal" text-decoration="none" x="200" y="90">UNREGISTERED</text><text fill="#eeeeee" stroke="none" font-family="Arial" font-size="24px" font-style="normal" font-weight="normal" text-decoration="none" x="200" y="120">UNREGISTERED</text><text fill="#eeeeee" stroke="none" font-family="Arial" font-size="24px" font-style="normal" font-weight="normal" text-decoration="none" x="200" y="150">UNREGISTERED</text><text fill="#eeeeee" stroke="none" font-family="Arial" font-size="24px" font-style="normal" font-weight="normal" text-decoration="none" x="200" y="180">UNREGISTERED</text><text fill="#eeeeee" stroke="none" font-family="Arial" font-size="24px" font-style="normal" font-weight="normal" text-decoration="none" x="200" y="210">UNREGISTERED</text><text fill="#eeeeee" stroke="none" font-family="Arial" font-size="24px" font-style="normal" font-weight="normal" text-decoration="none" x="200" y="240">UNREGISTERED</text><text fill="#eeeeee" stroke="none" font-family="Arial" font-size="24px" font-style="normal" font-weight="normal" text-decoration="none" x="200" y="270">UNREGISTERED</text><text fill="#eeeeee" stroke="none" font-family="Arial" font-size="24px" font-style="normal" font-weight="normal" text-decoration="none" x="200" y="300">UNREGISTERED</text><text fill="#eeeeee" stroke="none" font-family="Arial" font-size="24px" font-style="normal" font-weight="normal" text-decoration="none" x="200" y="330">UNREGISTERED</text><text fill="#eeeeee" stroke="none" font-family="Arial" font-size="24px" font-style="normal" font-weight="normal" text-decoration="none" x="200" y="360">UNREGISTERED</text><text fill="#eeeeee" stroke="none" font-family="Arial" font-size="24px" font-style="normal" font-weight="normal" text-decoration="none" x="200" y="390">UNREGISTERED</text><text fill="#eeeeee" stroke="none" font-family="Arial" font-size="24px" font-style="normal" font-weight="normal" text-decoration="none" x="200" y="420">UNREGISTERED</text><text fill="#eeeeee" stroke="none" font-family="Arial" font-size="24px" font-style="normal" font-weight="normal" text-decoration="none" x="200" y="450">UNREGISTERED</text><text fill="#eeeeee" stroke="none" font-family="Arial" font-size="24px" font-style="normal" font-weight="normal" text-decoration="none" x="200" y="480">UNREGISTERED</text><text fill="#eeeeee" stroke="none" font-family="Arial" font-size="24px" font-style="normal" font-weight="normal" text-decoration="none" x="200" y="510">UNREGISTERED</text><text fill="#eeeeee" stroke="none" font-family="Arial" font-size="24px" font-style="normal" font-weight="normal" text-decoration="none" x="200" y="540">UNREGISTERED</text><text fill="#eeeeee" stroke="none" font-family="Arial" font-size="24px" font-style="normal" font-weight="normal" text-decoration="none" x="200" y="570">UNREGISTERED</text><text fill="#eeeeee" stroke="none" font-family="Arial" font-size="24px" font-style="normal" font-weight="normal" text-decoration="none" x="200" y="600">UNREGISTERED</text><text fill="#eeeeee" stroke="none" font-family="Arial" font-size="24px" font-style="normal" font-weight="normal" text-decoration="none" x="200" y="630">UNREGISTERED</text><text fill="#eeeeee" stroke="none" font-family="Arial" font-size="24px" font-style="normal" font-weight="normal" text-decoration="none" x="200" y="660">UNREGISTERED</text><text fill="#eeeeee" stroke="none" font-family="Arial" font-size="24px" font-style="normal" font-weight="normal" text-decoration="none" x="200" y="690">UNREGISTERED</text><text fill="#eeeeee" stroke="none" font-family="Arial" font-size="24px" font-style="normal" font-weight="normal" text-decoration="none" x="200" y="720">UNREGISTERED</text><text fill="#eeeeee" stroke="none" font-family="Arial" font-size="24px" font-style="normal" font-weight="normal" text-decoration="none" x="200" y="750">UNREGISTERED</text><text fill="#eeeeee" stroke="none" font-family="Arial" font-size="24px" font-style="normal" font-weight="normal" text-decoration="none" x="200" y="780">UNREGISTERED</text><text fill="#eeeeee" stroke="none" font-family="Arial" font-size="24px" font-style="normal" font-weight="normal" text-decoration="none" x="200" y="810">UNREGISTERED</text><text fill="#eeeeee" stroke="none" font-family="Arial" font-size="24px" font-style="normal" font-weight="normal" text-decoration="none" x="200" y="840">UNREGISTERED</text><text fill="#eeeeee" stroke="none" font-family="Arial" font-size="24px" font-style="normal" font-weight="normal" text-decoration="none" x="400" y="0">UNREGISTERED</text><text fill="#eeeeee" stroke="none" font-family="Arial" font-size="24px" font-style="normal" font-weight="normal" text-decoration="none" x="400" y="30">UNREGISTERED</text><text fill="#eeeeee" stroke="none" font-family="Arial" font-size="24px" font-style="normal" font-weight="normal" text-decoration="none" x="400" y="60">UNREGISTERED</text><text fill="#eeeeee" stroke="none" font-family="Arial" font-size="24px" font-style="normal" font-weight="normal" text-decoration="none" x="400" y="90">UNREGISTERED</text><text fill="#eeeeee" stroke="none" font-family="Arial" font-size="24px" font-style="normal" font-weight="normal" text-decoration="none" x="400" y="120">UNREGISTERED</text><text fill="#eeeeee" stroke="none" font-family="Arial" font-size="24px" font-style="normal" font-weight="normal" text-decoration="none" x="400" y="150">UNREGISTERED</text><text fill="#eeeeee" stroke="none" font-family="Arial" font-size="24px" font-style="normal" font-weight="normal" text-decoration="none" x="400" y="180">UNREGISTERED</text><text fill="#eeeeee" stroke="none" font-family="Arial" font-size="24px" font-style="normal" font-weight="normal" text-decoration="none" x="400" y="210">UNREGISTERED</text><text fill="#eeeeee" stroke="none" font-family="Arial" font-size="24px" font-style="normal" font-weight="normal" text-decoration="none" x="400" y="240">UNREGISTERED</text><text fill="#eeeeee" stroke="none" font-family="Arial" font-size="24px" font-style="normal" font-weight="normal" text-decoration="none" x="400" y="270">UNREGISTERED</text><text fill="#eeeeee" stroke="none" font-family="Arial" font-size="24px" font-style="normal" font-weight="normal" text-decoration="none" x="400" y="300">UNREGISTERED</text><text fill="#eeeeee" stroke="none" font-family="Arial" font-size="24px" font-style="normal" font-weight="normal" text-decoration="none" x="400" y="330">UNREGISTERED</text><text fill="#eeeeee" stroke="none" font-family="Arial" font-size="24px" font-style="normal" font-weight="normal" text-decoration="none" x="400" y="360">UNREGISTERED</text><text fill="#eeeeee" stroke="none" font-family="Arial" font-size="24px" font-style="normal" font-weight="normal" text-decoration="none" x="400" y="390">UNREGISTERED</text><text fill="#eeeeee" stroke="none" font-family="Arial" font-size="24px" font-style="normal" font-weight="normal" text-decoration="none" x="400" y="420">UNREGISTERED</text><text fill="#eeeeee" stroke="none" font-family="Arial" font-size="24px" font-style="normal" font-weight="normal" text-decoration="none" x="400" y="450">UNREGISTERED</text><text fill="#eeeeee" stroke="none" font-family="Arial" font-size="24px" font-style="normal" font-weight="normal" text-decoration="none" x="400" y="480">UNREGISTERED</text><text fill="#eeeeee" stroke="none" font-family="Arial" font-size="24px" font-style="normal" font-weight="normal" text-decoration="none" x="400" y="510">UNREGISTERED</text><text fill="#eeeeee" stroke="none" font-family="Arial" font-size="24px" font-style="normal" font-weight="normal" text-decoration="none" x="400" y="540">UNREGISTERED</text><text fill="#eeeeee" stroke="none" font-family="Arial" font-size="24px" font-style="normal" font-weight="normal" text-decoration="none" x="400" y="570">UNREGISTERED</text><text fill="#eeeeee" stroke="none" font-family="Arial" font-size="24px" font-style="normal" font-weight="normal" text-decoration="none" x="400" y="600">UNREGISTERED</text><text fill="#eeeeee" stroke="none" font-family="Arial" font-size="24px" font-style="normal" font-weight="normal" text-decoration="none" x="400" y="630">UNREGISTERED</text><text fill="#eeeeee" stroke="none" font-family="Arial" font-size="24px" font-style="normal" font-weight="normal" text-decoration="none" x="400" y="660">UNREGISTERED</text><text fill="#eeeeee" stroke="none" font-family="Arial" font-size="24px" font-style="normal" font-weight="normal" text-decoration="none" x="400" y="690">UNREGISTERED</text><text fill="#eeeeee" stroke="none" font-family="Arial" font-size="24px" font-style="normal" font-weight="normal" text-decoration="none" x="400" y="720">UNREGISTERED</text><text fill="#eeeeee" stroke="none" font-family="Arial" font-size="24px" font-style="normal" font-weight="normal" text-decoration="none" x="400" y="750">UNREGISTERED</text><text fill="#eeeeee" stroke="none" font-family="Arial" font-size="24px" font-style="normal" font-weight="normal" text-decoration="none" x="400" y="780">UNREGISTERED</text><text fill="#eeeeee" stroke="none" font-family="Arial" font-size="24px" font-style="normal" font-weight="normal" text-decoration="none" x="400" y="810">UNREGISTERED</text><text fill="#eeeeee" stroke="none" font-family="Arial" font-size="24px" font-style="normal" font-weight="normal" text-decoration="none" x="400" y="840">UNREGISTERED</text><text fill="#eeeeee" stroke="none" font-family="Arial" font-size="24px" font-style="normal" font-weight="normal" text-decoration="none" x="600" y="0">UNREGISTERED</text><text fill="#eeeeee" stroke="none" font-family="Arial" font-size="24px" font-style="normal" font-weight="normal" text-decoration="none" x="600" y="30">UNREGISTERED</text><text fill="#eeeeee" stroke="none" font-family="Arial" font-size="24px" font-style="normal" font-weight="normal" text-decoration="none" x="600" y="60">UNREGISTERED</text><text fill="#eeeeee" stroke="none" font-family="Arial" font-size="24px" font-style="normal" font-weight="normal" text-decoration="none" x="600" y="90">UNREGISTERED</text><text fill="#eeeeee" stroke="none" font-family="Arial" font-size="24px" font-style="normal" font-weight="normal" text-decoration="none" x="600" y="120">UNREGISTERED</text><text fill="#eeeeee" stroke="none" font-family="Arial" font-size="24px" font-style="normal" font-weight="normal" text-decoration="none" x="600" y="150">UNREGISTERED</text><text fill="#eeeeee" stroke="none" font-family="Arial" font-size="24px" font-style="normal" font-weight="normal" text-decoration="none" x="600" y="180">UNREGISTERED</text><text fill="#eeeeee" stroke="none" font-family="Arial" font-size="24px" font-style="normal" font-weight="normal" text-decoration="none" x="600" y="210">UNREGISTERED</text><text fill="#eeeeee" stroke="none" font-family="Arial" font-size="24px" font-style="normal" font-weight="normal" text-decoration="none" x="600" y="240">UNREGISTERED</text><text fill="#eeeeee" stroke="none" font-family="Arial" font-size="24px" font-style="normal" font-weight="normal" text-decoration="none" x="600" y="270">UNREGISTERED</text><text fill="#eeeeee" stroke="none" font-family="Arial" font-size="24px" font-style="normal" font-weight="normal" text-decoration="none" x="600" y="300">UNREGISTERED</text><text fill="#eeeeee" stroke="none" font-family="Arial" font-size="24px" font-style="normal" font-weight="normal" text-decoration="none" x="600" y="330">UNREGISTERED</text><text fill="#eeeeee" stroke="none" font-family="Arial" font-size="24px" font-style="normal" font-weight="normal" text-decoration="none" x="600" y="360">UNREGISTERED</text><text fill="#eeeeee" stroke="none" font-family="Arial" font-size="24px" font-style="normal" font-weight="normal" text-decoration="none" x="600" y="390">UNREGISTERED</text><text fill="#eeeeee" stroke="none" font-family="Arial" font-size="24px" font-style="normal" font-weight="normal" text-decoration="none" x="600" y="420">UNREGISTERED</text><text fill="#eeeeee" stroke="none" font-family="Arial" font-size="24px" font-style="normal" font-weight="normal" text-decoration="none" x="600" y="450">UNREGISTERED</text><text fill="#eeeeee" stroke="none" font-family="Arial" font-size="24px" font-style="normal" font-weight="normal" text-decoration="none" x="600" y="480">UNREGISTERED</text><text fill="#eeeeee" stroke="none" font-family="Arial" font-size="24px" font-style="normal" font-weight="normal" text-decoration="none" x="600" y="510">UNREGISTERED</text><text fill="#eeeeee" stroke="none" font-family="Arial" font-size="24px" font-style="normal" font-weight="normal" text-decoration="none" x="600" y="540">UNREGISTERED</text><text fill="#eeeeee" stroke="none" font-family="Arial" font-size="24px" font-style="normal" font-weight="normal" text-decoration="none" x="600" y="570">UNREGISTERED</text><text fill="#eeeeee" stroke="none" font-family="Arial" font-size="24px" font-style="normal" font-weight="normal" text-decoration="none" x="600" y="600">UNREGISTERED</text><text fill="#eeeeee" stroke="none" font-family="Arial" font-size="24px" font-style="normal" font-weight="normal" text-decoration="none" x="600" y="630">UNREGISTERED</text><text fill="#eeeeee" stroke="none" font-family="Arial" font-size="24px" font-style="normal" font-weight="normal" text-decoration="none" x="600" y="660">UNREGISTERED</text><text fill="#eeeeee" stroke="none" font-family="Arial" font-size="24px" font-style="normal" font-weight="normal" text-decoration="none" x="600" y="690">UNREGISTERED</text><text fill="#eeeeee" stroke="none" font-family="Arial" font-size="24px" font-style="normal" font-weight="normal" text-decoration="none" x="600" y="720">UNREGISTERED</text><text fill="#eeeeee" stroke="none" font-family="Arial" font-size="24px" font-style="normal" font-weight="normal" text-decoration="none" x="600" y="750">UNREGISTERED</text><text fill="#eeeeee" stroke="none" font-family="Arial" font-size="24px" font-style="normal" font-weight="normal" text-decoration="none" x="600" y="780">UNREGISTERED</text><text fill="#eeeeee" stroke="none" font-family="Arial" font-size="24px" font-style="normal" font-weight="normal" text-decoration="none" x="600" y="810">UNREGISTERED</text><text fill="#eeeeee" stroke="none" font-family="Arial" font-size="24px" font-style="normal" font-weight="normal" text-decoration="none" x="600" y="840">UNREGISTERED</text><text fill="#eeeeee" stroke="none" font-family="Arial" font-size="24px" font-style="normal" font-weight="normal" text-decoration="none" x="800" y="0">UNREGISTERED</text><text fill="#eeeeee" stroke="none" font-family="Arial" font-size="24px" font-style="normal" font-weight="normal" text-decoration="none" x="800" y="30">UNREGISTERED</text><text fill="#eeeeee" stroke="none" font-family="Arial" font-size="24px" font-style="normal" font-weight="normal" text-decoration="none" x="800" y="60">UNREGISTERED</text><text fill="#eeeeee" stroke="none" font-family="Arial" font-size="24px" font-style="normal" font-weight="normal" text-decoration="none" x="800" y="90">UNREGISTERED</text><text fill="#eeeeee" stroke="none" font-family="Arial" font-size="24px" font-style="normal" font-weight="normal" text-decoration="none" x="800" y="120">UNREGISTERED</text><text fill="#eeeeee" stroke="none" font-family="Arial" font-size="24px" font-style="normal" font-weight="normal" text-decoration="none" x="800" y="150">UNREGISTERED</text><text fill="#eeeeee" stroke="none" font-family="Arial" font-size="24px" font-style="normal" font-weight="normal" text-decoration="none" x="800" y="180">UNREGISTERED</text><text fill="#eeeeee" stroke="none" font-family="Arial" font-size="24px" font-style="normal" font-weight="normal" text-decoration="none" x="800" y="210">UNREGISTERED</text><text fill="#eeeeee" stroke="none" font-family="Arial" font-size="24px" font-style="normal" font-weight="normal" text-decoration="none" x="800" y="240">UNREGISTERED</text><text fill="#eeeeee" stroke="none" font-family="Arial" font-size="24px" font-style="normal" font-weight="normal" text-decoration="none" x="800" y="270">UNREGISTERED</text><text fill="#eeeeee" stroke="none" font-family="Arial" font-size="24px" font-style="normal" font-weight="normal" text-decoration="none" x="800" y="300">UNREGISTERED</text><text fill="#eeeeee" stroke="none" font-family="Arial" font-size="24px" font-style="normal" font-weight="normal" text-decoration="none" x="800" y="330">UNREGISTERED</text><text fill="#eeeeee" stroke="none" font-family="Arial" font-size="24px" font-style="normal" font-weight="normal" text-decoration="none" x="800" y="360">UNREGISTERED</text><text fill="#eeeeee" stroke="none" font-family="Arial" font-size="24px" font-style="normal" font-weight="normal" text-decoration="none" x="800" y="390">UNREGISTERED</text><text fill="#eeeeee" stroke="none" font-family="Arial" font-size="24px" font-style="normal" font-weight="normal" text-decoration="none" x="800" y="420">UNREGISTERED</text><text fill="#eeeeee" stroke="none" font-family="Arial" font-size="24px" font-style="normal" font-weight="normal" text-decoration="none" x="800" y="450">UNREGISTERED</text><text fill="#eeeeee" stroke="none" font-family="Arial" font-size="24px" font-style="normal" font-weight="normal" text-decoration="none" x="800" y="480">UNREGISTERED</text><text fill="#eeeeee" stroke="none" font-family="Arial" font-size="24px" font-style="normal" font-weight="normal" text-decoration="none" x="800" y="510">UNREGISTERED</text><text fill="#eeeeee" stroke="none" font-family="Arial" font-size="24px" font-style="normal" font-weight="normal" text-decoration="none" x="800" y="540">UNREGISTERED</text><text fill="#eeeeee" stroke="none" font-family="Arial" font-size="24px" font-style="normal" font-weight="normal" text-decoration="none" x="800" y="570">UNREGISTERED</text><text fill="#eeeeee" stroke="none" font-family="Arial" font-size="24px" font-style="normal" font-weight="normal" text-decoration="none" x="800" y="600">UNREGISTERED</text><text fill="#eeeeee" stroke="none" font-family="Arial" font-size="24px" font-style="normal" font-weight="normal" text-decoration="none" x="800" y="630">UNREGISTERED</text><text fill="#eeeeee" stroke="none" font-family="Arial" font-size="24px" font-style="normal" font-weight="normal" text-decoration="none" x="800" y="660">UNREGISTERED</text><text fill="#eeeeee" stroke="none" font-family="Arial" font-size="24px" font-style="normal" font-weight="normal" text-decoration="none" x="800" y="690">UNREGISTERED</text><text fill="#eeeeee" stroke="none" font-family="Arial" font-size="24px" font-style="normal" font-weight="normal" text-decoration="none" x="800" y="720">UNREGISTERED</text><text fill="#eeeeee" stroke="none" font-family="Arial" font-size="24px" font-style="normal" font-weight="normal" text-decoration="none" x="800" y="750">UNREGISTERED</text><text fill="#eeeeee" stroke="none" font-family="Arial" font-size="24px" font-style="normal" font-weight="normal" text-decoration="none" x="800" y="780">UNREGISTERED</text><text fill="#eeeeee" stroke="none" font-family="Arial" font-size="24px" font-style="normal" font-weight="normal" text-decoration="none" x="800" y="810">UNREGISTERED</text><text fill="#eeeeee" stroke="none" font-family="Arial" font-size="24px" font-style="normal" font-weight="normal" text-decoration="none" x="800" y="840">UNREGISTERED</text><g transform="translate(-230,-38) scale(1,1)"><rect fill="#C0C0C0" stroke="none" x="383" y="55" width="648" height="839" opacity="0.2"/></g><g transform="translate(-230,-38) scale(1,1)"><rect fill="#ffffff" stroke="none" x="376" y="48" width="648" height="839"/></g><g transform="translate(-230,-38) scale(1,1)"><path fill="none" stroke="#000000" d="M 376 48 L 1024 48 L 1024 887 L 376 887 L 376 48 Z Z" stroke-miterlimit="10"/></g><g transform="translate(-230,-38) scale(1,1)"><g><path fill="none" stroke="none"/><text fill="#000000" stroke="none" font-family="Arial" font-size="13px" font-style="normal" font-weight="bold" text-decoration="none" x="552.642333984375" y="66">Diagrama CU - Caso de uso Gestionar producto</text></g></g><g transform="translate(-230,-38) scale(1,1)"><path fill="#ffffff" stroke="none" d="M 260.02116672585225 409.68 C 260.02116672585225 404.886167936 263.90700905079774 401 268.700439453125 401 C 273.49386985545226 401 277.37971218039775 404.886167936 277.37971218039775 409.68 C 277.37971218039775 414.473832064 273.49386985545226 418.36 268.700439453125 418.36 C 263.90700905079774 418.36 260.02116672585225 414.473832064 260.02116672585225 409.68 Z"/></g><g transform="translate(-230,-38) scale(1,1)"><path fill="none" stroke="#000000" d="M 260.02116672585225 409.68 C 260.02116672585225 404.886167936 263.90700905079774 401 268.700439453125 401 C 273.49386985545226 401 277.37971218039775 404.886167936 277.37971218039775 409.68 C 277.37971218039775 414.473832064 273.49386985545226 418.36 268.700439453125 418.36 C 263.90700905079774 418.36 260.02116672585225 414.473832064 260.02116672585225 409.68 Z" stroke-miterlimit="10"/></g><g transform="translate(-230,-38) scale(1,1)"><path fill="none" stroke="#000000" d="M 268.700439453125 418.36 L 268.700439453125 435.64" stroke-miterlimit="10"/></g><g transform="translate(-230,-38) scale(1,1)"><path fill="none" stroke="#000000" d="M 259.51062127130683 424.84 L 277.89025763494317 424.84" stroke-miterlimit="10"/></g><g transform="translate(-230,-38) scale(1,1)"><path fill="none" stroke="#000000" d="M 268.700439453125 435.64 L 255.93680308948865 453" stroke-miterlimit="10"/></g><g transform="translate(-230,-38) scale(1,1)"><path fill="none" stroke="#000000" d="M 268.700439453125 435.64 L 281.46407581676135 453" stroke-miterlimit="10"/></g><g transform="translate(-230,-38) scale(1,1)"><g><path fill="none" stroke="none"/><text fill="#000000" stroke="none" font-family="Arial" font-size="13px" font-style="normal" font-weight="bold" text-decoration="none" x="244.5" y="472">Usuario</text></g></g><g transform="translate(-230,-38) scale(1,1)"><path fill="#C0C0C0" stroke="none" d="M 519 216 C 519 206.6111584 558.8466528 199 608 199 C 657.1533472 199 697 206.6111584 697 216 C 697 225.3888416 657.1533472 233 608 233 C 558.8466528 233 519 225.3888416 519 216 Z" opacity="0.2"/></g><g transform="translate(-230,-38) scale(1,1)"><path fill="#ffffff" stroke="none" d="M 512 209 C 512 199.6111584 551.8466528 192 601 192 C 650.1533472 192 690 199.6111584 690 209 C 690 218.3888416 650.1533472 226 601 226 C 551.8466528 226 512 218.3888416 512 209 Z"/></g><g transform="translate(-230,-38) scale(1,1)"><path fill="none" stroke="#000000" d="M 512 209 C 512 199.6111584 551.8466528 192 601 192 C 650.1533472 192 690 199.6111584 690 209 C 690 218.3888416 650.1533472 226 601 226 C 551.8466528 226 512 218.3888416 512 209 Z" stroke-miterlimit="10"/></g><g transform="translate(-230,-38) scale(1,1)"><g><path fill="none" stroke="none"/><text fill="#000000" stroke="none" font-family="Arial" font-size="13px" font-style="normal" font-weight="bold" text-decoration="none" x="546.108642578125" y="214.5">Agregar producto</text></g></g><g transform="translate(-230,-38) scale(1,1)"><path fill="#C0C0C0" stroke="none" d="M 543 408 C 543 398.6111584 583.9659408 391 634.5 391 C 685.0340592 391 726 398.6111584 726 408 C 726 417.3888416 685.0340592 425 634.5 425 C 583.9659408 425 543 417.3888416 543 408 Z" opacity="0.2"/></g><g transform="translate(-230,-38) scale(1,1)"><path fill="#ffffff" stroke="none" d="M 536 401 C 536 391.6111584 576.9659408 384 627.5 384 C 678.0340592 384 719 391.6111584 719 401 C 719 410.3888416 678.0340592 418 627.5 418 C 576.9659408 418 536 410.3888416 536 401 Z"/></g><g transform="translate(-230,-38) scale(1,1)"><path fill="none" stroke="#000000" d="M 536 401 C 536 391.6111584 576.9659408 384 627.5 384 C 678.0340592 384 719 391.6111584 719 401 C 719 410.3888416 678.0340592 418 627.5 418 C 576.9659408 418 536 410.3888416 536 401 Z" stroke-miterlimit="10"/></g><g transform="translate(-230,-38) scale(1,1)"><g><path fill="none" stroke="none"/><text fill="#000000" stroke="none" font-family="Arial" font-size="13px" font-style="normal" font-weight="bold" text-decoration="none" x="567.197265625" y="406.5">Consultar producto</text></g></g><g transform="translate(-230,-38) scale(1,1)"><path fill="#C0C0C0" stroke="none" d="M 535 544 C 535 534.6111584 575.0705104 527 624.5 527 C 673.9294896 527 714 534.6111584 714 544 C 714 553.3888416 673.9294896 561 624.5 561 C 575.0705104 561 535 553.3888416 535 544 Z" opacity="0.2"/></g><g transform="translate(-230,-38) scale(1,1)"><path fill="#ffffff" stroke="none" d="M 528 537 C 528 527.6111584 568.0705104 520 617.5 520 C 666.9294896 520 707 527.6111584 707 537 C 707 546.3888416 666.9294896 554 617.5 554 C 568.0705104 554 528 546.3888416 528 537 Z"/></g><g transform="translate(-230,-38) scale(1,1)"><path fill="none" stroke="#000000" d="M 528 537 C 528 527.6111584 568.0705104 520 617.5 520 C 666.9294896 520 707 527.6111584 707 537 C 707 546.3888416 666.9294896 554 617.5 554 C 568.0705104 554 528 546.3888416 528 537 Z" stroke-miterlimit="10"/></g><g transform="translate(-230,-38) scale(1,1)"><g><path fill="none" stroke="none"/><text fill="#000000" stroke="none" font-family="Arial" font-size="13px" font-style="normal" font-weight="bold" text-decoration="none" x="558.641357421875" y="542.5">Modificar producto</text></g></g><g transform="translate(-230,-38) scale(1,1)"><path fill="#C0C0C0" stroke="none" d="M 527 752 C 527 742.6111584 565.055792 735 612 735 C 658.944208 735 697 742.6111584 697 752 C 697 761.3888416 658.944208 769 612 769 C 565.055792 769 527 761.3888416 527 752 Z" opacity="0.2"/></g><g transform="translate(-230,-38) scale(1,1)"><path fill="#ffffff" stroke="none" d="M 520 745 C 520 735.6111584 558.055792 728 605 728 C 651.944208 728 690 735.6111584 690 745 C 690 754.3888416 651.944208 762 605 762 C 558.055792 762 520 754.3888416 520 745 Z"/></g><g transform="translate(-230,-38) scale(1,1)"><path fill="none" stroke="#000000" d="M 520 745 C 520 735.6111584 558.055792 728 605 728 C 651.944208 728 690 735.6111584 690 745 C 690 754.3888416 651.944208 762 605 762 C 558.055792 762 520 754.3888416 520 745 Z" stroke-miterlimit="10"/></g><g transform="translate(-230,-38) scale(1,1)"><g><path fill="none" stroke="none"/><text fill="#000000" stroke="none" font-family="Arial" font-size="13px" font-style="normal" font-weight="bold" text-decoration="none" x="549.385009765625" y="750.5">Eliminar producto</text></g></g><g transform="translate(-230,-38) scale(1,1)"><path fill="none" stroke="#000000" d="M 298 418 L 575 227" stroke-miterlimit="10"/></g><g transform="translate(-230,-38) scale(1,1)"><path fill="none" stroke="#000000" d="M 298 436 L 535 411" stroke-miterlimit="10"/></g><g transform="translate(-230,-38) scale(1,1)"><path fill="none" stroke="#000000" d="M 298 448 L 553 519" stroke-miterlimit="10"/></g><g transform="translate(-230,-38) scale(1,1)"><path fill="none" stroke="#000000" d="M 298 467 L 585 727" stroke-miterlimit="10"/></g><g transform="translate(-230,-38) scale(1,1)"><path fill="#ffffff" stroke="none" d="M 261.47160617897725 241.68 C 261.47160617897725 236.886167936 265.35744850392274 233 270.15087890625 233 C 274.94430930857726 233 278.83015163352275 236.886167936 278.83015163352275 241.68 C 278.83015163352275 246.47383206400002 274.94430930857726 250.36 270.15087890625 250.36 C 265.35744850392274 250.36 261.47160617897725 246.47383206400002 261.47160617897725 241.68 Z"/></g><g transform="translate(-230,-38) scale(1,1)"><path fill="none" stroke="#000000" d="M 261.47160617897725 241.68 C 261.47160617897725 236.886167936 265.35744850392274 233 270.15087890625 233 C 274.94430930857726 233 278.83015163352275 236.886167936 278.83015163352275 241.68 C 278.83015163352275 246.47383206400002 274.94430930857726 250.36 270.15087890625 250.36 C 265.35744850392274 250.36 261.47160617897725 246.47383206400002 261.47160617897725 241.68 Z" stroke-miterlimit="10"/></g><g transform="translate(-230,-38) scale(1,1)"><path fill="none" stroke="#000000" d="M 270.15087890625 250.36 L 270.15087890625 267.64" stroke-miterlimit="10"/></g><g transform="translate(-230,-38) scale(1,1)"><path fill="none" stroke="#000000" d="M 260.96106072443183 256.84 L 279.34069708806817 256.84" stroke-miterlimit="10"/></g><g transform="translate(-230,-38) scale(1,1)"><path fill="none" stroke="#000000" d="M 270.15087890625 267.64 L 257.38724254261365 285" stroke-miterlimit="10"/></g><g transform="translate(-230,-38) scale(1,1)"><path fill="none" stroke="#000000" d="M 270.15087890625 267.64 L 282.91451526988635 285" stroke-miterlimit="10"/></g><g transform="translate(-230,-38) scale(1,1)"><g><path fill="none" stroke="none"/><text fill="#000000" stroke="none" font-family="Arial" font-size="13px" font-style="normal" font-weight="bold" text-decoration="none" x="244.5" y="304">Persona</text></g></g><g transform="translate(-230,-38) scale(1,1)"><path fill="none" stroke="#000000" d="M 268 399 L 270 312" stroke-miterlimit="10"/></g><g transform="translate(-230,-38) scale(1,1)"><path fill="#FFFFFF" stroke="none" d="M 277.94968577996997 332.5134710860874 L 270 312 L 261.1160622126725 332.1264912339656"/></g><g transform="translate(-230,-38) scale(1,1)"><path fill="none" stroke="#000000" d="M 277.94968577996997 332.5134710860874 L 270 312 L 261.1160622126725 332.1264912339656 L 277.94968577996997 332.5134710860874" stroke-miterlimit="10"/></g><g transform="translate(-230,-38) scale(1,1)"><path fill="#C0C0C0" stroke="none" d="M 839 320 C 839 310.6111584 861.6096176 303 889.5 303 C 917.3903824 303 940 310.6111584 940 320 C 940 329.3888416 917.3903824 337 889.5 337 C 861.6096176 337 839 329.3888416 839 320 Z" opacity="0.2"/></g><g transform="translate(-230,-38) scale(1,1)"><path fill="#ffffff" stroke="none" d="M 832 313 C 832 303.6111584 854.6096176 296 882.5 296 C 910.3903824 296 933 303.6111584 933 313 C 933 322.3888416 910.3903824 330 882.5 330 C 854.6096176 330 832 322.3888416 832 313 Z"/></g><g transform="translate(-230,-38) scale(1,1)"><path fill="none" stroke="#000000" d="M 832 313 C 832 303.6111584 854.6096176 296 882.5 296 C 910.3903824 296 933 303.6111584 933 313 C 933 322.3888416 910.3903824 330 882.5 330 C 854.6096176 330 832 322.3888416 832 313 Z" stroke-miterlimit="10"/></g><g transform="translate(-230,-38) scale(1,1)"><g><path fill="none" stroke="none"/><text fill="#000000" stroke="none" font-family="Arial" font-size="13px" font-style="normal" font-weight="bold" text-decoration="none" x="853.9609375" y="318.5">Registrar</text></g></g><g transform="translate(-230,-38) scale(1,1)"><path fill="none" stroke="#000000" d="M 691 209 L 880 208 L 882 295" stroke-miterlimit="10" stroke-dasharray="3"/></g><g transform="translate(-230,-38) scale(1,1)"><path fill="none" stroke="#000000" d="M 877.5580311063362 284.9367543830172 L 882 295 L 885.974842889985 284.7432644569563" stroke-miterlimit="10"/></g><g transform="translate(-230,-38) scale(1,1)"><g><path fill="none" stroke="none"/><text fill="#000000" stroke="none" font-family="Arial" font-size="13px" font-style="normal" font-weight="normal" text-decoration="none" x="823.5" y="202">«include»</text></g></g><g transform="translate(-230,-38) scale(1,1)"><path fill="none" stroke="#000000" d="M 708 534 L 880 528 L 882 331" stroke-miterlimit="10" stroke-dasharray="3"/></g><g transform="translate(-230,-38) scale(1,1)"><path fill="none" stroke="#000000" d="M 886.1061317902378 341.20488518902584 L 882 331 L 877.6875301149324 341.1194171517131" stroke-miterlimit="10"/></g><g transform="translate(-230,-38) scale(1,1)"><g><path fill="none" stroke="none"/><text fill="#000000" stroke="none" font-family="Arial" font-size="13px" font-style="normal" font-weight="normal" text-decoration="none" x="823.5" y="522">«include»</text></g></g><g transform="translate(-230,-38) scale(1,1)"><path fill="none" stroke="#000000" d="M 691 747 L 880 752 L 882 331" stroke-miterlimit="10" stroke-dasharray="3"/></g><g transform="translate(-230,-38) scale(1,1)"><path fill="none" stroke="#000000" d="M 886.1611920606787 341.1825576666251 L 882 331 L 877.7422515480318 341.14256269981917" stroke-miterlimit="10"/></g><g transform="translate(-230,-38) scale(1,1)"><g><path fill="none" stroke="none"/><text fill="#000000" stroke="none" font-family="Arial" font-size="13px" font-style="normal" font-weight="normal" text-decoration="none" x="815.5" y="779">«include»</text></g></g><g transform="translate(-230,-38) scale(1,1)"><path fill="#C0C0C0" stroke="none" d="M 551 648 C 551 638.6111584 590.3989376 631 639 631 C 687.6010624 631 727 638.6111584 727 648 C 727 657.3888416 687.6010624 665 639 665 C 590.3989376 665 551 657.3888416 551 648 Z" opacity="0.2"/></g><g transform="translate(-230,-38) scale(1,1)"><path fill="#ffffff" stroke="none" d="M 544 641 C 544 631.6111584 583.3989376 624 632 624 C 680.6010624 624 720 631.6111584 720 641 C 720 650.3888416 680.6010624 658 632 658 C 583.3989376 658 544 650.3888416 544 641 Z"/></g><g transform="translate(-230,-38) scale(1,1)"><path fill="none" stroke="#000000" d="M 544 641 C 544 631.6111584 583.3989376 624 632 624 C 680.6010624 624 720 631.6111584 720 641 C 720 650.3888416 680.6010624 658 632 658 C 583.3989376 658 544 650.3888416 544 641 Z" stroke-miterlimit="10"/></g><g transform="translate(-230,-38) scale(1,1)"><g><path fill="none" stroke="none"/><text fill="#000000" stroke="none" font-family="Arial" font-size="13px" font-style="normal" font-weight="bold" text-decoration="none" x="574.201416015625" y="646.5">Realizar Inventario</text></g></g><g transform="translate(-230,-38) scale(1,1)"><path fill="none" stroke="#000000" d="M 298 456 L 600 623" stroke-miterlimit="10"/></g></g></svg>